# xmcd
# 
# Track frame offsets:
#     150
#     19003
#     38495
#     66780
#     86615
#     111028
#     132005
#     149468
#     175335
#     188510
#     212168
#     232728
#     247483
# 
# Disc length: 3618
# 
# Revision: 0
# Processed by: cddbd v1.5.2PL0 Copyright (c) Steve Scherf et al.
# Submitted via: fre:ac v1.0.31
# 
DISCID=ad0e200d
DTITLE=Al Kooper - Rekooperation Disc 3
DYEAR=1994
DGENRE=Rock/Pop
TTITLE0=Downtime
TTITLE1=After The Lights Go Down Low
TTITLE2=When The Spell Is Broken
TTITLE3=How 'My Ever Going To Get Over You
TTITLE4=Sneakin Round The Barnyard
TTITLE5=Soul Twist-Ed
TTITLE6=Lookin' For Clues
TTITLE7=Honky Tonk
TTITLE8=Clean Up Woman
TTITLE9=Don't Be Cruel
TTITLE10=Alvino Johnson's Shuffle
TTITLE11=Johnny B. Goode
TTITLE12=I Wanna Little Girl
EXTD=YEAR: 1994
EXTT0=
EXTT1=
EXTT2=
EXTT3=
EXTT4=
EXTT5=
EXTT6=
EXTT7=
EXTT8=
EXTT9=
EXTT10=
EXTT11=
EXTT12=
PLAYORDER=
